<svg width="40" height="40" viewBox="0 0 40 40" fill="none" xmlns="http://www.w3.org/2000/svg">
<path d="M35 18.9418C32.2386 18.9418 30 16.5859 30 13.6799C30 10.7738 32.2386 8.41797 35 8.41797C37.7614 8.41797 40 10.7738 40 13.6799C40 16.5859 37.7614 18.9418 35 18.9418Z" fill="#FFE180"/>
<path d="M26 10.5238C23.2386 10.5238 21 8.16797 21 5.2619C21 2.35583 23.2386 3.39263e-07 26 2.18558e-07C28.7614 9.78515e-08 31 2.35583 31 5.2619C31 8.16797 28.7614 10.5238 26 10.5238Z" fill="#FFE180"/>
<path d="M14 10.5238C11.2386 10.5238 8.99997 8.16797 8.99997 5.2619C8.99997 2.35583 11.2386 3.39263e-07 14 2.18558e-07C16.7614 9.78515e-08 19 2.35583 19 5.2619C19 8.16797 16.7614 10.5238 14 10.5238Z" fill="#FFE180"/>
<path d="M4.99999 18.9418C2.23856 18.9418 -2.57498e-05 16.5859 -2.58768e-05 13.6799C-2.60039e-05 10.7738 2.23856 8.41797 4.99999 8.41797C7.76142 8.41797 10 10.7738 10 13.6799C10 16.5859 7.76142 18.9418 4.99999 18.9418Z" fill="#FFE180"/>
<path d="M9.31965 24.9619C11.0597 22.8151 12.5197 20.9839 14.2797 18.8371C15.1997 17.7005 16.3797 16.5639 17.7797 16.0588C17.9997 15.9746 18.2197 15.9114 18.4397 15.8693C18.9397 15.7852 19.4797 15.7852 19.9997 15.7852C20.5197 15.7852 21.0597 15.7852 21.5797 15.8904C21.7997 15.9325 22.0197 15.9956 22.2397 16.0798C23.6397 16.585 24.7997 17.7215 25.7397 18.8581C27.4797 21.005 28.9397 22.8361 30.6997 24.983C33.3197 27.7402 36.5397 30.7921 35.9397 35.0648C35.3597 37.2116 33.8997 39.3374 31.2797 39.9478C29.8197 40.2635 25.1597 39.0217 20.1997 39.0217L19.8397 39.0217C14.8797 39.0217 10.2197 40.2425 8.75965 39.9478C6.13964 39.3374 4.67964 37.1906 4.09964 35.0648C3.47963 30.771 6.69964 27.7191 9.31965 24.9619Z" fill="#FFE180"/>
</svg>
